<?xml version="1.0" encoding="utf-8"?>
<!-- Generator: Adobe Illustrator 18.0.0, SVG Export Plug-In . SVG Version: 6.00 Build 0)  -->
<!DOCTYPE svg PUBLIC "-//W3C//DTD SVG 1.1//EN" "http://www.w3.org/Graphics/SVG/1.1/DTD/svg11.dtd">
<svg version="1.1" id="Layer_1" xmlns="http://www.w3.org/2000/svg" xmlns:xlink="http://www.w3.org/1999/xlink" x="0px" y="0px"
	 viewBox="0 0 1000 1000" enable-background="new 0 0 1000 1000" xml:space="preserve">
<path fill="#E30613" d="M379.3,229.2c-48.3,0-87.5,39.2-87.5,87.5s39.2,87.5,87.5,87.5s87.5-39.2,87.5-87.5S427.6,229.2,379.3,229.2
	z M379.3,366.7c-27.6,0-50-22.4-50-50s22.4-50,50-50s50,22.4,50,50S406.9,366.7,379.3,366.7z"/>
<path fill="#E30613" d="M194.5,515c-48.3,0-87.5,39.1-87.5,87.5c0,48.3,39.2,87.5,87.5,87.5s87.5-39.2,87.5-87.5
	C282,554.1,242.8,515,194.5,515z M194.5,652.5c-27.6,0-50-22.4-50-50s22.4-50,50-50s50,22.4,50,50S222.1,652.5,194.5,652.5z"/>
<path fill="#E30613" d="M612.8,382.2c-48.3,0-87.5,39.2-87.5,87.5s39.2,87.5,87.5,87.5c48.3,0,87.5-39.2,87.5-87.5
	S661,382.2,612.8,382.2z M612.8,519.7c-27.6,0-50-22.4-50-50s22.4-50,50-50s50,22.4,50,50S640.3,519.7,612.8,519.7z"/>
<path fill="#E30613" d="M712.5,0C664.2,0,625,39.2,625,87.5s39.2,87.5,87.5,87.5S800,135.8,800,87.5S760.8,0,712.5,0z M712.5,137.5
	c-27.6,0-50-22.4-50-50s22.4-50,50-50s50,22.4,50,50S740.1,137.5,712.5,137.5z"/>
<rect fill="#E30613" width="50" height="800"/>
<rect y="750" fill="#E30613" width="800" height="50"/>
<line fill="none" x1="299.8" y1="469.7" x2="379.3" y2="367.6"/>
<rect x="652.1" y="156.4" transform="matrix(0.9619 0.2735 -0.2735 0.9619 101.3363 -171.8831)" fill="#E52420" width="30" height="242.2"/>
<rect x="280" y="356.5" transform="matrix(0.8395 0.5434 -0.5434 0.8395 297.0648 -86.5412)" fill="#E52420" width="30" height="206.1"/>
<rect x="423.6" y="373.5" transform="matrix(0.8877 0.4605 -0.4605 0.8877 234.9128 -185.9183)" fill="#E52420" width="149.8" height="30"/>
</svg>
